<?xml version="1.0" standalone="no"?>
<!DOCTYPE svg PUBLIC "-//W3C//DTD SVG 20010904//EN"
 "http://www.w3.org/TR/2001/REC-SVG-20010904/DTD/svg10.dtd">
<svg version="1.0" xmlns="http://www.w3.org/2000/svg"
 width="828.000000pt" height="828.000000pt" viewBox="0 0 828.000000 828.000000"
 preserveAspectRatio="xMidYMid meet">
<metadata>
Created by potrace 1.14, written by Peter Selinger 2001-2017
</metadata>
<g transform="translate(0.000000,828.000000) scale(0.100000,-0.100000)"
fill="#000000" stroke="none">
<path d="M1180 8270 c0 -22 31 -70 52 -81 63 -34 145 -12 172 46 21 44 21 45
-14 45 -18 0 -30 -5 -30 -13 0 -21 -34 -47 -61 -47 -30 0 -43 9 -58 38 -12 22
-61 32 -61 12z"/>
<path d="M4380 8268 c0 -7 9 -27 19 -44 23 -37 77 -59 125 -50 35 7 80 48 91
84 6 19 3 22 -24 22 -19 0 -31 -5 -31 -13 0 -21 -34 -47 -61 -47 -30 0 -43 9
-58 38 -13 24 -61 32 -61 10z"/>
<path d="M5376 8258 c23 -76 61 -107 129 -104 63 3 88 25 115 99 9 25 8 27
-20 27 -21 0 -30 -6 -36 -22 -23 -77 -111 -78 -130 -2 -5 19 -13 24 -36 24
-26 0 -29 -3 -22 -22z"/>
<path d="M5940 8170 l0 -112 -37 4 c-32 3 -38 0 -38 -17 0 -19 8 -20 103 -23
101 -3 102 -2 102 20 0 20 -5 23 -37 23 l-38 0 0 105 0 105 -27 3 -28 3 0
-111z"/>
<path d="M6420 8241 c0 -40 0 -41 -36 -38 -31 2 -37 -1 -40 -20 -4 -23 -2 -23
101 -23 98 0 105 1 105 20 0 21 0 21 -45 24 -27 1 -30 4 -30 36 0 31 -3 35
-27 38 -26 3 -28 1 -28 -37z"/>
<path d="M4968 8105 c-10 -22 -40 -38 -72 -40 -14 0 -16 -33 -3 -38 7 -2 24
-3 40 -2 l27 2 0 -143 0 -144 -37 3 c-31 2 -37 -1 -38 -20 -2 -22 1 -23 102
-23 96 0 103 1 103 20 0 20 -4 22 -50 22 l-25 1 0 184 c1 167 -1 186 -17 194
-15 8 -20 5 -30 -16z"/>
<path d="M1279 7877 c-14 -16 -35 -30 -48 -31 -15 -1 -25 -8 -27 -18 -2 -17 8
-21 59 -21 15 0 17 -13 17 -143 l0 -143 -27 1 c-45 1 -49 -1 -50 -22 -2 -19 4
-20 103 -20 97 0 104 1 104 20 0 21 0 21 -45 24 l-30 1 0 187 c0 164 -2 187
-16 191 -9 3 -26 -8 -40 -26z"/>
<path d="M4438 7894 c-50 -27 -71 -86 -72 -199 0 -165 48 -236 149 -220 83 12
116 74 116 216 0 79 -13 141 -34 170 -37 48 -106 62 -159 33z m106 -53 c20
-23 33 -97 30 -175 -4 -106 -25 -146 -75 -146 -55 0 -82 62 -78 178 4 125 22
162 79 162 15 0 35 -8 44 -19z"/>
<path d="M5483 7860 c-16 -16 -39 -31 -52 -33 -13 -2 -25 -11 -27 -20 -2 -17
1 -19 49 -20 l28 -1 -3 -141 -3 -140 -38 -3 c-30 -3 -37 -7 -35 -20 3 -14 19
-17 106 -20 103 -3 103 -3 100 20 -2 14 -9 22 -18 20 -7 -2 -23 -1 -35 2 -20
5 -21 11 -20 190 1 204 -4 218 -52 166z"/>
<path d="M6423 7860 c-16 -16 -39 -31 -52 -33 -13 -2 -25 -11 -27 -20 -2 -16
4 -19 51 -21 19 -1 20 -9 23 -143 l3 -143 -38 3 c-32 2 -38 -1 -38 -18 0 -19
8 -20 103 -23 97 -3 102 -2 102 18 0 14 -7 20 -22 21 -13 1 -30 2 -38 3 -13 1
-15 29 -15 188 0 206 -4 219 -52 168z"/>
<path d="M2968 7824 c-7 -16 -25 -28 -50 -34 -21 -6 -38 -14 -38 -18 1 -19 18
-30 45 -28 l30 1 3 -141 3 -142 -31 3 c-29 3 -42 -7 -46 -32 -2 -10 24 -13
102 -13 97 0 104 1 104 20 0 21 0 21 -45 24 l-30 1 0 187 c0 172 -1 187 -18
192 -12 3 -22 -3 -29 -20z"/>
<path d="M3415 7832 c-52 -32 -73 -96 -70 -218 3 -105 29 -168 79 -189 20 -8
45 -15 57 -15 31 0 82 27 99 52 38 61 41 246 5 321 -30 64 -108 86 -170 49z
m108 -49 c19 -22 27 -52 31 -126 4 -76 -9 -155 -30 -178 -23 -25 -68 -24 -93
2 -20 22 -35 127 -28 199 3 19 5 44 6 56 3 53 80 84 114 47z"/>
<path d="M5904 7740 c-54 -21 -83 -109 -79 -233 5 -139 58 -206 150 -193 52 8
93 48 106 102 21 90 8 241 -24 285 -34 44 -99 61 -153 39z m107 -70 c35 -47
30 -251 -7 -291 -17 -19 -60 -25 -80 -11 -25 16 -38 62 -41 142 -3 93 10 157
35 177 26 20 73 11 93 -17z"/>
<path d="M4011 7702 c-8 -3 -24 -16 -36 -30 -12 -13 -32 -25 -45 -26 -13 0
-24 -8 -26 -18 -2 -19 10 -25 49 -23 l27 2 0 -142 0 -142 -27 -1 c-46 0 -49
-1 -50 -22 -2 -19 4 -20 103 -20 97 0 104 1 104 20 0 21 0 21 -45 24 l-30 1 0
187 c0 102 -2 188 -5 191 -3 2 -11 2 -19 -1z"/>
<path d="M1654 7602 l-32 -3 0 -210 0 -210 27 3 26 3 0 167 c0 93 2 168 6 168
3 0 27 -50 55 -112 31 -71 55 -112 65 -114 13 -1 30 29 69 117 29 65 54 119
55 119 2 0 4 -69 4 -152 -1 -218 -3 -200 29 -196 l27 3 0 205 0 204 -32 7
c-17 3 -36 3 -41 0 -5 -3 -31 -55 -56 -116 -26 -60 -48 -111 -50 -112 -2 -2
-25 46 -52 107 -26 61 -53 114 -58 118 -6 4 -25 6 -42 4z"/>
<path d="M2325 7561 c-33 -14 -53 -44 -68 -102 -31 -116 -2 -280 54 -309 66
-36 145 -14 176 48 26 54 26 251 -1 305 -29 58 -99 83 -161 58z m98 -59 c24
-26 34 -89 31 -177 -6 -114 -35 -157 -98 -141 -34 8 -49 52 -52 149 -2 89 8
148 29 173 17 19 71 17 90 -4z"/>
<path d="M6854 7551 c-47 -29 -69 -95 -68 -206 1 -142 45 -215 129 -215 44 0
92 29 110 66 37 78 34 256 -4 318 -36 57 -108 73 -167 37z m109 -49 c23 -25
34 -86 31 -165 -4 -116 -23 -157 -73 -157 -37 0 -50 12 -66 56 -20 56 -14 222
10 257 21 32 73 37 98 9z"/>
<path d="M4860 7422 c-6 -2 -10 -15 -10 -28 0 -24 1 -24 105 -24 l105 0 -57
-82 c-31 -46 -80 -115 -109 -154 -29 -39 -54 -84 -56 -100 l-3 -29 148 -3 147
-3 0 25 0 25 -114 3 -115 3 114 159 c102 143 122 182 103 201 -6 6 -242 12
-258 7z"/>
<path d="M1288 7184 c-10 -21 -40 -37 -72 -39 -14 0 -16 -35 -3 -36 7 -1 24
-2 40 -2 l27 -1 0 -142 0 -142 -30 3 c-29 3 -42 -7 -46 -32 -2 -10 24 -13 102
-13 102 0 104 1 104 23 0 18 -5 22 -27 21 -16 0 -33 1 -38 3 -7 2 -10 70 -10
188 0 170 -1 184 -18 189 -12 3 -22 -3 -29 -20z"/>
<path d="M4496 7195 c-9 -9 -16 -20 -16 -25 0 -5 -18 -14 -40 -20 -22 -6 -40
-14 -40 -18 1 -19 18 -30 45 -28 l30 1 3 -141 3 -141 -28 -1 c-48 0 -52 -2
-50 -22 1 -19 8 -20 104 -20 101 0 103 1 103 23 0 18 -5 22 -27 21 -16 0 -33
1 -38 3 -7 2 -10 68 -10 184 1 188 -5 217 -39 184z"/>
<path d="M5481 7159 c-13 -18 -31 -29 -45 -29 -13 0 -27 -7 -30 -16 -9 -22 -3
-27 36 -28 l33 -1 3 -142 3 -141 -31 2 c-30 2 -42 -6 -46 -31 -2 -10 24 -13
102 -13 97 0 104 1 104 20 0 18 -11 25 -34 21 -4 -1 -16 1 -25 4 -15 4 -17 25
-16 189 0 165 -1 185 -16 189 -10 3 -25 -7 -38 -24z"/>
<path d="M6375 7172 c-52 -32 -74 -101 -70 -224 4 -129 52 -198 136 -198 40 0
87 31 105 68 34 72 34 231 0 304 -30 63 -111 86 -171 50z m108 -50 c22 -24 34
-90 31 -170 -4 -111 -24 -152 -75 -152 -57 0 -81 59 -75 191 4 88 16 133 38
142 28 11 66 6 81 -11z"/>
<path d="M2968 7124 c-6 -13 -23 -27 -37 -30 -14 -3 -30 -7 -35 -8 -14 -3 -16
-36 -3 -37 7 -1 24 -1 40 -1 l27 -1 0 -143 0 -143 -27 1 c-45 1 -49 -1 -50
-22 -2 -19 4 -20 103 -20 97 0 104 1 104 20 0 20 -4 22 -50 23 l-25 0 0 190
c0 175 -1 190 -18 193 -11 1 -22 -7 -29 -22z"/>
<path d="M3466 7125 c-5 -18 -17 -27 -46 -35 -22 -6 -40 -14 -40 -18 1 -18 18
-27 48 -27 l32 1 0 -143 0 -143 -37 3 c-32 2 -38 -1 -38 -18 0 -19 8 -20 103
-23 103 -3 103 -3 100 20 -2 19 -9 23 -38 23 l-35 0 0 184 c0 179 -1 184 -22
192 -17 6 -22 3 -27 -16z"/>
<path d="M5890 7028 c-46 -32 -62 -83 -63 -198 -1 -120 23 -182 77 -205 99
-42 170 14 185 144 8 76 -2 168 -24 214 -31 67 -112 87 -175 45z m112 -45 c23
-26 31 -59 32 -133 3 -130 -21 -190 -75 -190 -57 0 -80 58 -75 190 5 119 19
149 72 150 17 0 38 -8 46 -17z"/>
<path d="M3938 6994 c-50 -27 -71 -86 -72 -200 0 -87 4 -108 25 -150 28 -56
74 -81 132 -70 74 14 109 84 109 217 0 81 -4 102 -29 157 -27 57 -105 79 -165
46z m105 -51 c20 -23 28 -58 31 -135 4 -125 -21 -188 -75 -188 -55 0 -77 53
-77 180 1 82 12 128 36 148 23 17 66 15 85 -5z"/>
<path d="M1776 6975 c-9 -9 -16 -20 -16 -25 0 -5 -17 -14 -38 -20 -23 -6 -39
-16 -39 -25 0 -16 4 -17 50 -17 l27 -1 0 -142 c0 -141 0 -142 -22 -142 -49 -1
-56 -3 -54 -20 3 -16 17 -18 104 -21 97 -3 102 -2 102 18 0 21 0 21 -45 24
l-30 1 0 182 c0 190 -6 220 -39 188z"/>
<path d="M2318 6854 c-51 -27 -72 -86 -71 -199 0 -112 22 -183 64 -205 62 -34
140 -15 173 41 21 36 35 161 25 230 -4 26 -15 64 -25 84 -28 59 -106 82 -166
49z m105 -51 c20 -23 29 -61 31 -131 4 -126 -21 -192 -73 -192 -54 0 -74 38
-77 150 -4 98 8 159 32 177 25 18 68 16 87 -4z"/>
<path d="M6928 6863 c-9 -3 -20 -13 -23 -24 -4 -10 -18 -22 -33 -25 -15 -3
-31 -7 -36 -8 -14 -3 -16 -34 -3 -39 7 -2 24 -3 40 -2 l27 2 0 -143 0 -143
-29 1 c-34 1 -51 -8 -51 -28 0 -11 20 -14 105 -14 98 0 105 1 105 20 0 21 0
21 -45 24 l-30 1 0 187 c0 102 -2 188 -5 190 -3 3 -13 3 -22 1z"/>
<path d="M4915 6712 c-52 -32 -73 -96 -70 -219 3 -107 32 -171 87 -192 80 -29
148 12 169 103 15 71 8 212 -14 256 -32 66 -110 89 -172 52z m108 -49 c28 -32
41 -141 26 -235 -10 -59 -32 -88 -68 -88 -37 0 -51 12 -66 56 -27 79 -10 252
27 275 22 14 64 10 81 -8z"/>
<path d="M6326 6510 c-3 -8 -4 -104 -4 -212 l0 -198 134 0 134 0 -2 25 c-2 25
-3 25 -105 25 l-103 0 0 78 0 78 83 -1 c99 -1 107 1 107 29 0 22 -3 22 -95 22
l-95 -1 0 58 0 57 104 0 104 0 0 25 c0 21 -5 25 -32 26 -227 4 -226 4 -230
-11z"/>
<path d="M4488 6485 c-7 -16 -24 -29 -48 -35 -22 -6 -37 -16 -37 -25 0 -16 4
-17 50 -17 l27 -1 0 -143 0 -143 -27 1 c-45 1 -49 -1 -50 -22 -2 -19 4 -20
103 -20 97 0 104 1 104 20 0 20 -4 22 -50 22 l-25 1 0 184 c1 167 -1 186 -17
194 -14 8 -20 5 -30 -16z"/>
<path d="M1239 6466 c-82 -35 -114 -92 -114 -206 0 -71 4 -91 23 -125 40 -66
89 -92 172 -90 30 1 70 9 88 19 27 14 32 22 32 54 0 21 -4 32 -8 25 -11 -17
-92 -53 -120 -53 -77 0 -132 72 -132 174 0 140 96 203 213 141 l47 -25 0 33
c0 33 -3 35 -53 51 -58 18 -107 19 -148 2z"/>
<path d="M622 6259 l0 -210 92 2 c126 2 178 31 192 106 8 44 -16 99 -51 115
l-25 11 25 23 c48 45 45 112 -8 144 -26 16 -50 20 -128 20 l-97 0 0 -211z
m150 162 c55 -2 77 -62 36 -101 -16 -15 -35 -20 -75 -20 l-53 0 0 63 0 62 32
-2 c18 -1 45 -2 60 -2z m1 -170 c68 -2 101 -69 58 -122 -15 -19 -30 -24 -85
-27 l-66 -4 0 75 c0 76 6 88 40 81 8 -1 32 -3 53 -3z"/>
<path d="M5342 6250 l0 -210 29 0 29 0 0 79 c0 80 6 111 20 111 4 0 41 -43 81
-95 70 -90 76 -95 112 -95 l38 0 -92 115 c-80 102 -89 118 -78 133 11 14 78
86 137 147 18 20 15 25 -18 25 -21 0 -38 -10 -62 -37 -18 -20 -56 -62 -85 -92
l-52 -56 -1 93 0 92 -29 0 -29 0 0 -210z"/>
<path d="M2915 6432 c-53 -33 -74 -101 -70 -224 5 -145 65 -215 166 -193 67
15 100 85 100 217 0 116 -28 186 -85 208 -40 15 -77 12 -111 -8z m116 -62 c35
-47 30 -251 -7 -291 -21 -23 -67 -25 -88 -4 -47 48 -45 286 2 315 28 17 74 7
93 -20z"/>
<path d="M3463 6420 c-16 -16 -39 -31 -52 -33 -25 -4 -38 -33 -18 -40 7 -2 24
-3 40 -2 l27 2 0 -144 c0 -79 -4 -142 -8 -139 -16 10 -65 -10 -68 -27 -2 -15
10 -17 102 -17 97 0 104 1 104 20 0 14 -7 20 -22 21 -13 1 -30 2 -38 3 -13 1
-15 29 -15 188 0 206 -4 219 -52 168z"/>
<path d="M5945 6322 c-15 -17 -39 -32 -53 -34 -27 -3 -41 -37 -16 -39 8 -1 24
-2 37 -3 22 -1 22 -4 25 -143 l3 -143 -37 3 c-31 2 -37 -1 -40 -20 -4 -23 -2
-23 101 -23 98 0 105 1 105 20 0 21 0 21 -45 24 l-30 1 0 182 c0 205 -6 225
-50 175z"/>
<path d="M1725 6281 c-54 -23 -84 -110 -80 -232 6 -160 83 -234 190 -183 41
19 65 67 74 143 14 125 -16 238 -70 266 -30 16 -82 19 -114 6z m98 -59 c42
-46 42 -258 1 -303 -18 -20 -59 -25 -82 -10 -48 30 -55 265 -9 317 17 19 71
17 90 -4z"/>
<path d="M3909 6282 l-26 -3 0 -210 0 -209 28 0 29 0 0 79 0 79 48 0 c76 1
117 23 147 81 30 60 8 132 -50 164 -22 11 -135 24 -176 19z m163 -82 c20 -25
22 -47 8 -84 -12 -32 -36 -45 -94 -49 l-46 -4 0 83 c0 55 4 84 12 86 28 10
102 -10 120 -32z"/>
<path d="M2368 6145 c-10 -22 -40 -38 -72 -40 -14 0 -16 -35 -3 -36 7 -1 24
-2 40 -2 l27 -1 0 -143 0 -143 -30 4 c-31 3 -57 -15 -45 -34 4 -6 47 -10 106
-10 96 0 99 1 99 23 0 18 -5 22 -27 21 -16 0 -33 1 -38 3 -7 2 -11 67 -10 184
1 164 -1 181 -17 190 -15 8 -20 5 -30 -16z"/>
<path d="M6904 6141 c-16 -17 -40 -32 -54 -34 -16 -3 -25 -10 -25 -23 0 -15 7
-19 35 -19 l35 0 3 -141 3 -140 -38 0 c-32 1 -38 -2 -38 -19 0 -19 8 -20 103
-23 101 -3 102 -2 102 20 0 20 -5 23 -37 23 l-38 0 0 182 c0 206 -5 223 -51
174z"/>
<path d="M4915 6012 c-52 -32 -74 -101 -70 -224 3 -86 30 -159 66 -178 62 -33
140 -15 172 40 37 62 38 238 2 314 -30 62 -109 85 -170 48z m108 -49 c20 -23
29 -61 31 -131 3 -79 -10 -151 -30 -173 -18 -20 -59 -25 -82 -10 -23 14 -40
83 -40 159 0 90 12 143 34 159 25 18 68 16 87 -4z"/>
<path d="M1298 5799 c-10 -6 -18 -16 -18 -24 0 -13 -35 -28 -65 -30 -5 0 -10
-9 -10 -20 0 -17 6 -20 38 -19 l37 1 0 -143 0 -144 -37 3 c-31 2 -37 -1 -38
-20 -2 -22 1 -23 102 -23 96 0 103 1 103 20 0 21 0 21 -45 24 l-30 1 0 182 c0
108 -4 186 -10 192 -7 6 -16 6 -27 0z"/>
<path d="M4385 5800 c-1 -3 -3 -98 -3 -212 l-1 -208 27 0 28 0 -1 175 c0 96 3
171 8 166 4 -4 46 -82 92 -172 81 -160 84 -164 117 -167 l33 -3 0 208 0 208
-27 3 -28 3 -1 -163 0 -163 -81 162 -82 161 -39 4 c-21 2 -40 1 -42 -2z"/>
<path d="M5480 5759 c-14 -16 -36 -31 -50 -33 -17 -2 -25 -9 -25 -22 0 -15 7
-19 38 -18 l37 0 0 -142 0 -141 -37 0 c-30 1 -37 -3 -40 -21 -3 -21 0 -22 102
-22 98 0 105 1 105 20 0 21 0 21 -45 24 l-30 1 0 183 c0 155 -2 185 -15 192
-12 6 -23 1 -40 -21z"/>
<path d="M6374 5771 c-47 -29 -68 -94 -68 -206 1 -155 51 -225 149 -210 85 12
117 79 114 234 -3 137 -44 201 -131 201 -18 0 -47 -9 -64 -19z m109 -49 c30
-33 42 -180 22 -261 -14 -56 -73 -81 -109 -46 -47 48 -46 276 2 313 23 18 66
15 85 -6z"/>
<path d="M2909 5727 c-92 -62 -86 -352 10 -401 62 -32 138 -9 167 52 34 72 34
231 1 302 -33 69 -114 90 -178 47z m115 -42 c41 -41 41 -261 0 -306 -21 -23
-67 -25 -88 -4 -25 25 -35 82 -33 174 3 81 16 127 41 143 19 13 64 9 80 -7z"/>
<path d="M3470 5739 c0 -25 -17 -41 -50 -48 -20 -4 -34 -13 -36 -23 -2 -19 10
-25 49 -23 l27 2 0 -142 c0 -108 -3 -143 -12 -142 -48 1 -64 -4 -64 -23 0 -19
7 -20 103 -20 96 0 103 1 103 20 0 21 0 21 -45 24 l-30 1 0 188 c0 103 -3 187
-7 187 -3 0 -13 3 -22 6 -10 4 -16 1 -16 -7z"/>
<path d="M5944 5621 c-16 -17 -40 -32 -54 -34 -16 -3 -25 -10 -25 -23 0 -15 7
-19 35 -19 l35 0 3 -140 2 -140 -31 -2 c-18 -1 -37 -7 -42 -12 -22 -22 8 -31
104 -31 92 0 99 1 99 20 0 21 0 21 -45 24 l-30 1 0 182 c0 206 -5 223 -51 174z"/>
<path d="M3952 5603 c-56 -11 -92 -109 -86 -238 6 -138 60 -206 153 -191 76
12 111 82 112 224 1 165 -55 229 -179 205z m91 -60 c20 -24 29 -60 31 -136 4
-124 -21 -187 -73 -187 -56 0 -74 38 -77 159 -2 98 8 147 35 168 23 18 66 16
84 -4z"/>
<path d="M1709 5567 c-46 -31 -68 -104 -63 -215 6 -148 57 -213 155 -197 77
13 109 78 110 217 0 116 -23 177 -76 203 -46 21 -86 19 -126 -8z m115 -42 c41
-41 41 -261 0 -306 -21 -23 -67 -25 -88 -4 -49 50 -45 284 6 316 21 14 65 10
82 -6z"/>
<path d="M2368 5444 c-7 -15 -25 -28 -49 -34 -27 -7 -36 -15 -35 -28 2 -13 12
-17 39 -16 l37 0 0 -143 0 -143 -30 4 c-29 3 -42 -5 -46 -31 -2 -10 24 -13
102 -13 97 0 104 1 104 20 0 19 -7 22 -55 23 -20 0 -20 6 -20 188 0 173 -1
188 -18 193 -12 3 -22 -3 -29 -20z"/>
<path d="M6888 5440 c-32 -8 -29 -34 5 -38 l27 -3 0 -169 c0 -133 -3 -168 -13
-164 -18 6 -52 -20 -43 -34 4 -8 38 -12 87 -12 78 0 80 1 77 23 -2 16 -9 21
-25 19 -19 -3 -23 2 -24 25 -1 31 -1 281 0 301 1 6 13 12 27 12 20 0 25 4 22
21 -3 19 -10 22 -60 23 -31 0 -67 -1 -80 -4z"/>
<path d="M4925 5321 c-54 -22 -83 -105 -80 -226 4 -145 59 -217 154 -201 77
12 112 83 110 228 -1 83 -11 125 -40 165 -26 38 -95 53 -144 34z m98 -59 c23
-25 34 -86 31 -166 -4 -115 -23 -156 -73 -156 -37 0 -51 12 -66 56 -27 79 -10
252 27 275 22 15 64 10 81 -9z"/>
<path d="M1238 5094 c-50 -27 -71 -86 -72 -199 0 -160 42 -227 140 -220 53 4
80 21 101 65 33 70 33 231 -2 303 -28 59 -108 84 -167 51z m106 -53 c29 -32
41 -177 20 -261 -8 -36 -33 -60 -63 -60 -54 0 -74 38 -78 150 -3 94 10 158 35
178 23 18 66 15 86 -7z"/>
<path d="M4435 5092 c-53 -33 -76 -106 -69 -229 8 -140 57 -202 149 -188 82
12 115 74 116 214 1 121 -27 191 -83 210 -45 16 -79 13 -113 -7z m109 -51 c42
-46 41 -256 -1 -303 -20 -22 -66 -23 -87 -3 -23 24 -37 88 -35 163 4 125 22
162 79 162 15 0 35 -8 44 -19z"/>
<path d="M5495 5074 c-8 -9 -15 -19 -15 -24 0 -5 -18 -14 -40 -20 -24 -6 -40
-17 -40 -25 0 -15 5 -17 53 -17 l28 -1 -3 -141 -3 -141 -25 -2 c-14 0 -30 -1
-37 -2 -6 -1 -11 -10 -10 -21 1 -19 8 -20 104 -20 96 0 103 1 103 20 0 13 -7
20 -20 21 -11 1 -24 3 -30 4 -5 1 -14 3 -18 4 -4 0 -7 84 -7 186 0 191 -5 214
-40 179z"/>
<path d="M6374 5071 c-47 -29 -69 -95 -68 -206 1 -116 26 -178 78 -200 45 -19
70 -19 111 1 44 20 67 71 74 159 11 126 -16 223 -70 250 -39 20 -88 19 -125
-4z m109 -48 c29 -34 41 -136 25 -237 -9 -57 -31 -86 -67 -86 -54 0 -73 37
-78 145 -4 92 11 171 36 185 26 15 67 12 84 -7z"/>
<path d="M2966 5024 c-6 -22 -38 -40 -62 -36 -13 3 -27 -25 -19 -37 2 -5 20
-7 40 -6 l35 3 0 -143 0 -142 -27 -1 c-48 0 -52 -2 -50 -22 1 -19 8 -20 104
-20 101 0 103 1 103 23 0 18 -5 22 -27 21 -16 0 -33 1 -38 3 -7 2 -10 71 -10
187 0 182 0 185 -22 189 -16 3 -23 -2 -27 -19z"/>
<path d="M3327 4993 c-3 -5 -5 -99 -5 -210 l0 -203 29 0 28 0 3 102 3 103 93
1 92 2 0 -104 0 -104 30 0 30 0 0 210 0 210 -30 0 -30 0 0 -79 c0 -54 -4 -80
-12 -83 -11 -3 -121 -2 -165 1 -9 1 -13 24 -13 81 0 78 -1 80 -24 80 -14 0
-27 -3 -29 -7z"/>
<path d="M6044 4781 c-77 -234 -63 -230 -129 -32 -56 169 -57 171 -86 171 -16
0 -29 -2 -29 -4 0 -2 32 -95 70 -206 39 -111 70 -204 70 -207 0 -2 15 -3 33
-1 30 3 33 7 54 68 12 36 22 65 23 65 0 0 22 64 49 142 l49 141 -27 4 c-28 4
-29 2 -77 -141z"/>
<path d="M3980 4879 c-14 -16 -36 -31 -49 -32 -13 -2 -25 -11 -27 -20 -2 -17
5 -19 54 -20 22 -1 22 -2 22 -143 0 -140 0 -141 -22 -141 -51 -1 -57 -3 -55
-23 1 -19 8 -20 105 -20 101 0 103 1 100 22 -2 18 -10 22 -38 22 l-35 1 0 183
c0 155 -2 185 -15 192 -12 6 -23 1 -40 -21z"/>
<path d="M1766 4864 c-6 -22 -38 -40 -62 -36 -13 3 -27 -25 -19 -37 2 -5 20
-7 40 -6 l35 3 0 -143 0 -143 -30 3 c-29 3 -42 -7 -46 -32 -2 -10 24 -13 102
-13 97 0 104 1 104 20 0 18 -11 25 -34 21 -4 -1 -16 1 -25 4 -15 4 -17 25 -16
189 0 182 0 185 -22 189 -16 3 -23 -2 -27 -19z"/>
<path d="M2324 4760 c-54 -22 -84 -110 -78 -235 5 -100 31 -160 78 -180 20 -8
45 -15 57 -15 38 0 87 31 103 65 35 74 36 235 2 307 -27 56 -101 83 -162 58z
m108 -70 c13 -18 19 -46 21 -105 6 -142 -17 -205 -74 -205 -54 0 -77 51 -77
171 0 84 13 139 36 157 26 20 72 11 94 -18z"/>
<path d="M6855 4752 c-53 -33 -74 -101 -70 -224 5 -127 51 -198 130 -198 44 0
92 29 110 66 37 78 34 256 -4 318 -35 56 -108 73 -166 38z m108 -50 c23 -25
34 -86 31 -165 -3 -83 -10 -116 -31 -139 -20 -22 -66 -23 -87 -3 -50 50 -45
284 7 317 21 14 63 9 80 -10z"/>
<path d="M4968 4604 c-6 -13 -23 -27 -37 -30 -14 -3 -30 -7 -35 -8 -14 -3 -16
-36 -3 -37 7 -1 24 -1 40 -1 l27 -1 0 -141 0 -142 -36 -1 c-41 -1 -49 -6 -41
-28 5 -12 25 -15 107 -15 93 0 100 1 100 20 0 18 -11 25 -34 21 -4 -1 -16 1
-25 4 -15 4 -17 25 -16 189 0 171 -1 185 -18 190 -12 3 -22 -3 -29 -20z"/>
<path d="M1245 4401 c-54 -22 -83 -105 -80 -226 4 -142 49 -205 143 -201 84 4
123 74 123 218 0 80 -12 134 -38 175 -24 36 -99 53 -148 34z m99 -60 c21 -23
34 -102 30 -178 -6 -105 -25 -143 -73 -143 -56 0 -73 32 -77 143 -4 100 8 165
34 185 23 18 66 15 86 -7z"/>
<path d="M4486 4384 c-6 -21 -35 -37 -70 -39 -5 0 -10 -8 -12 -17 -2 -20 21
-30 54 -23 22 4 22 4 22 -139 l0 -143 -27 -1 c-48 0 -52 -2 -50 -22 1 -19 8
-20 104 -20 101 0 103 1 103 23 0 18 -5 22 -27 21 -16 0 -33 1 -38 3 -7 2 -10
70 -10 187 0 182 0 185 -22 189 -16 3 -23 -2 -27 -19z"/>
<path d="M5438 4374 c-50 -27 -71 -86 -72 -199 0 -159 41 -225 139 -221 51 3
81 22 101 65 34 71 34 231 1 301 -31 64 -107 88 -169 54z m106 -53 c29 -32 41
-177 20 -261 -8 -37 -33 -60 -65 -60 -57 0 -80 56 -75 189 2 81 15 127 40 143
20 14 63 8 80 -11z"/>
<path d="M6435 4361 c-6 -11 -75 -299 -75 -316 0 -8 -3 -15 -8 -15 -4 0 -25
74 -46 165 l-39 165 -30 0 c-23 0 -28 -4 -25 -17 2 -10 27 -105 54 -210 l49
-193 31 0 32 0 31 134 c57 240 47 236 95 41 l42 -170 31 -3 c29 -3 33 0 42 35
63 242 92 367 87 378 -6 18 -44 8 -50 -14 -2 -9 -21 -86 -42 -171 -39 -160
-40 -162 -58 -75 -9 42 -57 235 -62 249 -6 15 -52 28 -59 17z"/>
<path d="M2915 4332 c-52 -32 -74 -101 -70 -224 5 -141 60 -209 156 -193 77
13 109 77 110 217 1 147 -42 218 -133 218 -18 0 -46 -8 -63 -18z m108 -49 c20
-23 29 -61 31 -131 3 -79 -10 -151 -30 -173 -18 -20 -59 -25 -82 -10 -23 14
-40 83 -40 159 0 90 12 143 34 159 25 18 68 16 87 -4z"/>
<path d="M3466 4325 c-5 -18 -17 -27 -44 -35 -23 -6 -39 -16 -39 -25 0 -15 8
-17 55 -18 22 -1 22 -2 22 -143 l0 -143 -27 1 c-47 1 -52 -1 -50 -22 1 -19 8
-20 104 -20 96 0 103 1 103 20 0 20 -6 23 -50 22 l-25 0 0 185 c0 181 -1 186
-22 194 -17 6 -22 3 -27 -16z"/>
<path d="M5944 4221 c-16 -17 -40 -32 -54 -34 -16 -3 -25 -10 -25 -23 0 -15 7
-19 35 -19 l35 0 3 -143 3 -144 -28 2 c-46 3 -52 1 -50 -20 1 -19 8 -20 104
-20 96 0 103 1 103 20 0 21 0 21 -45 24 l-30 1 0 182 c0 206 -5 223 -51 174z"/>
<path d="M4011 4202 c-8 -3 -24 -15 -35 -28 -12 -13 -32 -25 -45 -27 -13 -2
-25 -11 -27 -20 -2 -16 4 -19 51 -21 19 -1 20 -9 23 -144 l3 -143 -23 2 c-43
4 -56 -1 -54 -18 3 -16 17 -18 104 -21 97 -3 102 -2 102 18 0 13 -7 20 -20 21
-11 1 -24 3 -30 4 -5 1 -13 3 -18 4 -4 0 -7 85 -7 187 0 102 -2 187 -5 188 -3
2 -11 1 -19 -2z"/>
<path d="M1768 4166 c-10 -24 -35 -39 -67 -40 -17 -1 -23 -33 -8 -39 7 -2 24
-3 40 -2 l27 2 0 -143 0 -143 -27 1 c-45 1 -49 -1 -50 -22 -2 -19 4 -20 103
-20 97 0 104 1 104 20 0 19 -7 22 -55 23 -20 0 -20 6 -20 184 1 167 -1 186
-17 194 -14 8 -20 5 -30 -15z"/>
<path d="M2289 4062 c-87 -3 -89 -3 -89 -27 0 -24 2 -25 70 -25 l70 0 0 -185
0 -185 29 0 29 0 0 163 c0 89 1 172 1 185 1 21 5 22 71 22 67 0 70 1 70 24 0
24 -3 25 -81 28 -45 2 -121 2 -170 0z"/>
<path d="M6930 4062 c-8 -3 -22 -15 -32 -27 -10 -12 -31 -25 -47 -28 -21 -4
-29 -12 -28 -24 1 -14 9 -18 36 -18 l36 0 3 -142 3 -142 -29 1 c-35 1 -52 -8
-52 -28 0 -11 20 -14 106 -14 103 0 105 0 102 22 -2 19 -9 23 -38 23 l-35 0 0
187 c0 102 -2 188 -5 191 -3 2 -12 2 -20 -1z"/>
<path d="M4966 3904 c-6 -22 -38 -40 -62 -36 -13 3 -27 -25 -19 -37 2 -5 20
-7 40 -6 l35 3 0 -143 0 -143 -30 3 c-29 3 -42 -7 -46 -32 -2 -10 24 -13 102
-13 97 0 104 1 104 20 0 18 -11 25 -34 21 -4 -1 -16 1 -25 4 -15 4 -17 25 -16
189 0 182 0 185 -22 189 -16 3 -23 -2 -27 -19z"/>
<path d="M1255 3691 c-49 -25 -66 -51 -67 -102 -1 -69 27 -95 136 -125 86 -23
111 -72 61 -119 -33 -30 -106 -28 -160 3 -20 12 -38 22 -41 22 -2 0 -4 -13 -4
-30 0 -38 42 -61 118 -65 95 -5 155 33 167 105 11 63 -32 119 -102 134 -91 19
-115 36 -115 82 0 36 23 55 73 61 32 3 55 -1 83 -16 22 -11 41 -20 42 -18 1 1
4 13 6 27 2 19 -4 28 -27 39 -50 24 -124 25 -170 2z"/>
<path d="M4488 3684 c-7 -15 -25 -28 -48 -34 -22 -6 -37 -16 -37 -25 0 -16 4
-17 50 -17 l27 -1 0 -143 0 -143 -27 1 c-45 1 -49 -1 -50 -22 -2 -19 4 -20
103 -20 97 0 104 1 104 20 0 20 -4 22 -50 22 l-25 1 0 188 c0 173 -1 188 -18
193 -12 3 -22 -3 -29 -20z"/>
<path d="M5482 3661 c-11 -16 -34 -31 -51 -34 -18 -4 -31 -13 -31 -22 0 -15 5
-17 53 -17 l28 -1 -3 -141 -3 -141 -25 -2 c-14 0 -30 -1 -37 -2 -6 -1 -11 -10
-10 -21 1 -19 8 -20 105 -20 101 0 103 1 100 22 -2 18 -9 22 -38 21 l-35 0 0
184 c1 161 -2 186 -16 193 -12 7 -21 2 -37 -19z"/>
<path d="M6423 3661 c-15 -17 -39 -32 -52 -34 -16 -2 -25 -11 -26 -24 -1 -16
4 -19 37 -18 l38 1 0 -142 0 -143 -29 1 c-34 1 -51 -8 -51 -28 0 -11 20 -14
105 -14 103 0 105 1 105 23 0 18 -5 22 -27 21 -16 0 -33 1 -38 3 -7 2 -10 68
-10 184 1 203 -4 220 -52 170z"/>
<path d="M2976 3635 c-9 -9 -16 -21 -16 -26 0 -8 -40 -23 -64 -24 -14 0 -15
-33 -1 -39 7 -2 24 -3 39 -2 l26 3 0 -143 0 -144 -36 3 c-31 2 -37 -1 -40 -20
-4 -23 -2 -23 101 -23 98 0 105 1 105 20 0 21 0 21 -45 24 l-30 1 0 182 c0
190 -6 220 -39 188z"/>
<path d="M3464 3621 c-16 -17 -40 -32 -54 -34 -16 -3 -25 -10 -25 -23 0 -15 8
-18 38 -18 l37 0 0 -144 0 -144 -37 4 c-31 3 -36 0 -38 -19 -2 -22 1 -23 102
-23 96 0 103 1 103 20 0 14 -7 20 -22 21 -13 1 -30 2 -38 3 -13 1 -15 29 -15
183 0 206 -5 223 -51 174z"/>
<path d="M5900 3537 c-14 -6 -36 -34 -49 -61 -21 -42 -25 -64 -25 -145 0 -123
24 -184 80 -207 66 -28 131 -6 162 56 26 54 27 241 1 295 -32 67 -105 94 -169
62z m103 -54 c21 -24 29 -61 31 -141 3 -79 -9 -140 -31 -164 -20 -22 -66 -23
-87 -3 -47 48 -46 276 2 313 23 17 66 15 85 -5z"/>
<path d="M3995 3488 c-12 -31 -135 -401 -135 -404 0 -2 13 -4 28 -4 26 0 30 5
45 59 l16 58 82 -1 82 -1 20 -57 c17 -54 21 -58 49 -58 25 0 29 3 23 18 -3 9
-29 85 -56 167 -81 245 -76 235 -116 235 -18 0 -36 -6 -38 -12z m69 -140 c14
-42 26 -83 26 -90 0 -10 -16 -14 -60 -13 -33 0 -60 3 -60 6 0 5 41 128 55 168
8 20 11 15 39 -71z"/>
<path d="M1725 3481 c-55 -23 -84 -110 -79 -234 5 -102 30 -162 78 -182 99
-42 170 14 185 144 8 75 -2 168 -23 213 -27 56 -101 83 -161 59z m98 -59 c30
-33 42 -180 22 -262 -13 -50 -64 -77 -101 -52 -50 33 -58 264 -11 318 17 19
71 17 90 -4z"/>
<path d="M2359 3339 c-13 -16 -35 -31 -48 -32 -25 -4 -38 -33 -18 -40 7 -2 24
-3 40 -2 l27 2 0 -142 0 -142 -27 -1 c-48 0 -52 -2 -50 -22 1 -19 8 -20 104
-20 101 0 103 1 103 23 0 18 -5 22 -27 21 -16 0 -33 1 -38 3 -7 2 -10 70 -10
188 0 161 -2 184 -16 188 -9 3 -26 -8 -40 -24z"/>
<path d="M6904 3341 c-15 -17 -37 -31 -50 -31 -24 0 -41 -29 -24 -40 6 -4 24
-6 40 -5 l30 2 0 -142 0 -142 -27 -1 c-48 0 -52 -2 -50 -22 1 -19 8 -20 104
-20 96 0 103 1 103 20 0 20 -3 21 -50 24 l-25 1 0 182 c0 206 -6 225 -51 174z"/>
<path d="M7384 3351 c-87 -40 -125 -158 -93 -287 19 -72 96 -134 169 -134 9 0
22 -16 29 -35 15 -42 54 -65 111 -65 35 0 43 4 48 23 8 29 4 32 -48 32 -37 0
-46 4 -57 25 -12 22 -11 27 10 40 67 45 97 109 97 208 0 126 -75 212 -185 212
-22 0 -58 -9 -81 -19z m157 -57 c12 -10 28 -33 35 -51 17 -39 17 -135 1 -183
-15 -42 -68 -80 -112 -80 -44 0 -97 38 -112 80 -16 48 -16 144 1 184 22 54 63
79 119 73 27 -2 56 -12 68 -23z"/>
<path d="M4915 3212 c-52 -32 -74 -101 -70 -224 4 -126 51 -198 130 -198 45 0
92 29 111 68 34 73 34 232 -1 305 -30 64 -108 86 -170 49z m109 -51 c29 -32
41 -179 21 -261 -13 -51 -64 -76 -103 -51 -23 14 -40 83 -40 159 0 85 13 142
36 160 23 18 66 15 86 -7z"/>
<path d="M1276 2974 c-20 -19 -41 -31 -49 -28 -8 3 -17 -2 -21 -12 -8 -22 -4
-26 36 -28 l33 -2 3 -139 2 -140 -37 -3 c-43 -3 -48 -6 -40 -27 5 -12 25 -15
107 -15 93 0 100 1 100 20 0 13 -7 20 -20 21 -11 1 -24 3 -30 4 -5 1 -13 3
-18 4 -4 0 -7 84 -7 186 0 133 -3 186 -11 189 -7 3 -28 -11 -48 -30z"/>
<path d="M4429 2987 c-46 -31 -67 -102 -63 -214 3 -93 28 -164 65 -183 66 -36
145 -14 175 48 34 73 34 232 -1 305 -32 67 -112 87 -176 44z m114 -45 c30 -33
42 -180 22 -262 -13 -50 -64 -77 -101 -52 -52 34 -57 292 -6 322 27 15 68 12
85 -8z"/>
<path d="M5440 2977 c-14 -6 -36 -34 -50 -61 -33 -69 -35 -217 -2 -289 31 -70
97 -95 167 -61 43 20 67 70 74 154 12 127 -16 228 -70 255 -34 18 -85 19 -119
2z m103 -54 c20 -23 29 -61 31 -131 3 -79 -10 -151 -30 -173 -18 -20 -59 -25
-82 -10 -32 20 -45 121 -34 267 5 53 81 84 115 47z"/>
<path d="M6425 2962 c-14 -16 -39 -32 -54 -35 -16 -4 -28 -12 -28 -21 0 -16 4
-17 50 -20 22 -1 22 -4 25 -143 l3 -143 -30 4 c-34 4 -45 -2 -47 -26 -2 -16 9
-18 102 -18 97 0 104 1 104 20 0 20 -6 23 -50 22 l-25 0 0 184 c1 207 -5 226
-50 176z"/>
<path d="M3415 2932 c-53 -33 -74 -102 -70 -225 5 -128 52 -197 136 -197 35 0
84 29 103 60 35 61 37 238 2 311 -31 65 -109 88 -171 51z m108 -50 c30 -33 42
-180 22 -260 -13 -53 -63 -79 -103 -53 -48 30 -55 261 -9 319 14 18 71 15 90
-6z"/>
<path d="M2925 2920 c-37 -12 -79 -50 -102 -93 -13 -23 -18 -55 -18 -117 0
-75 3 -91 27 -131 48 -81 153 -109 251 -66 31 13 37 21 37 46 0 17 -2 31 -4
31 -2 0 -23 -11 -47 -24 -48 -27 -109 -28 -148 -4 -85 52 -78 258 10 303 41
22 106 15 147 -14 40 -28 44 -27 40 11 -2 25 -10 36 -32 46 -36 18 -122 24
-161 12z"/>
<path d="M5841 2861 c-7 -5 10 -41 49 -102 33 -52 60 -100 60 -106 0 -7 -29
-58 -65 -113 l-65 -100 34 0 c20 0 36 6 39 14 3 8 25 44 48 80 30 47 46 63 53
56 6 -6 29 -41 52 -78 35 -57 45 -67 72 -70 18 -2 32 -1 32 2 0 2 -29 51 -64
107 l-64 102 42 66 c23 36 52 83 65 104 l23 37 -30 0 c-27 0 -36 -9 -80 -81
-50 -80 -50 -81 -65 -58 -8 13 -30 49 -50 80 -34 54 -63 74 -86 60z"/>
<path d="M3997 2798 c-9 -5 -17 -15 -17 -23 0 -13 -35 -28 -64 -30 -14 0 -16
-35 -3 -36 7 -1 24 -2 40 -2 l27 -1 0 -141 0 -141 -37 0 c-30 0 -37 -3 -38
-22 -2 -21 1 -22 102 -22 96 0 103 1 103 20 0 14 -7 20 -22 21 -13 1 -30 2
-38 3 -13 1 -15 29 -15 188 0 192 -3 206 -38 186z"/>
<path d="M1715 2772 c-53 -33 -74 -102 -70 -225 5 -134 51 -197 140 -193 51 3
81 22 101 65 34 72 34 231 -1 304 -30 64 -108 86 -170 49z m109 -47 c41 -41
41 -261 0 -306 -21 -23 -67 -25 -88 -4 -47 48 -47 262 0 310 20 19 68 19 88 0z"/>
<path d="M2362 2641 c-11 -16 -34 -31 -50 -34 -17 -3 -29 -12 -29 -21 0 -17 4
-18 50 -18 l27 -1 0 -143 0 -143 -27 1 c-46 1 -51 -1 -49 -19 3 -16 17 -18
104 -21 97 -3 102 -2 102 18 0 21 0 21 -45 24 l-30 1 0 183 c0 157 -2 185 -16
192 -12 7 -21 2 -37 -19z"/>
<path d="M6855 2652 c-53 -33 -74 -102 -70 -225 5 -128 52 -197 136 -197 39 0
87 31 104 66 35 74 35 234 0 307 -30 64 -108 86 -170 49z m108 -50 c22 -24 33
-85 31 -164 -3 -115 -23 -158 -73 -158 -57 0 -74 38 -77 160 -1 90 7 140 29
168 14 18 71 15 90 -6z"/>
<path d="M4901 2520 c-9 -6 -8 -26 1 -36 4 -4 25 -8 45 -9 l38 -1 0 -147 c-1
-126 -3 -150 -18 -164 -16 -16 -66 -22 -106 -12 -10 3 -16 -5 -17 -23 -2 -24
1 -28 24 -30 91 -5 146 15 163 60 10 26 16 348 7 358 -7 6 -129 10 -137 4z"/>
<path d="M864 2302 l-81 -3 -1 -209 0 -210 29 0 29 0 0 100 c0 88 2 100 18
101 9 0 51 1 92 2 70 2 75 4 78 25 4 24 10 23 -113 25 l-70 2 -3 57 -3 57 98
3 c93 3 98 4 99 25 1 18 -5 22 -45 25 -25 1 -83 2 -127 0z"/>
<path d="M1303 2299 c-13 -5 -23 -15 -23 -24 0 -9 -12 -18 -30 -21 -63 -13
-62 -54 1 -49 l29 3 0 -143 0 -142 -37 0 c-32 1 -38 -2 -39 -21 -1 -21 2 -22
102 -22 97 0 104 1 104 20 0 20 -4 22 -50 22 l-25 1 0 184 c0 101 -2 188 -5
192 -3 5 -15 5 -27 0z"/>
<path d="M4435 2292 c-53 -33 -75 -105 -69 -228 5 -100 31 -160 78 -179 99
-42 170 14 185 144 8 74 -2 168 -22 211 -32 66 -110 89 -172 52z m109 -51 c29
-32 41 -180 21 -260 -13 -52 -63 -78 -103 -52 -24 15 -40 85 -40 166 1 88 12
133 36 153 23 18 66 15 86 -7z"/>
<path d="M5445 2281 c-54 -23 -85 -111 -80 -233 5 -130 52 -198 136 -198 40 0
87 31 105 68 34 72 34 232 -1 305 -26 55 -101 82 -160 58z m107 -71 c13 -19
19 -46 21 -105 6 -141 -17 -205 -72 -205 -55 0 -74 38 -77 153 -2 89 8 148 29
173 19 22 77 13 99 -16z"/>
<path d="M2968 2224 c-7 -16 -25 -28 -50 -34 -21 -6 -38 -14 -38 -18 1 -19 18
-30 45 -28 l30 1 3 -143 3 -143 -23 2 c-42 4 -54 -1 -55 -21 -2 -19 4 -20 103
-20 102 0 104 1 104 23 0 18 -5 22 -27 21 -16 0 -33 1 -38 3 -7 2 -10 71 -10
188 0 170 -1 184 -18 189 -12 3 -22 -3 -29 -20z"/>
<path d="M3414 2231 c-47 -29 -69 -95 -68 -206 1 -115 25 -178 78 -200 20 -8
45 -15 57 -15 31 0 82 27 99 52 38 61 41 246 5 321 -31 65 -108 86 -171 48z
m109 -48 c20 -23 28 -56 31 -129 3 -78 -10 -153 -30 -175 -23 -25 -68 -24 -93
2 -41 45 -37 275 6 307 24 17 67 15 86 -5z"/>
<path d="M6405 2236 c-78 -29 -125 -106 -125 -206 0 -138 83 -223 210 -216 30
2 72 10 93 19 l37 16 0 90 0 91 -73 0 c-41 0 -76 -3 -79 -6 -3 -3 -4 -14 -1
-24 4 -16 13 -19 49 -17 24 1 44 0 45 -3 5 -24 3 -103 -3 -106 -19 -12 -100
-15 -130 -5 -76 25 -113 157 -70 253 35 79 131 100 219 48 43 -25 43 -26 43
10 0 23 -7 33 -32 46 -44 23 -134 28 -183 10z"/>
<path d="M5950 2136 c0 -22 -18 -38 -50 -45 -20 -4 -34 -13 -36 -23 -2 -19 10
-25 49 -23 l27 2 0 -143 0 -143 -35 1 c-40 1 -50 -5 -42 -27 5 -12 26 -15 107
-15 99 0 101 0 98 23 -2 18 -9 22 -38 20 l-35 -2 0 185 c0 102 -2 188 -5 192
-9 12 -40 10 -40 -2z"/>
<path d="M3980 2079 c-14 -16 -36 -31 -49 -32 -31 -5 -38 -37 -8 -38 12 -1 29
-2 37 -3 12 -1 15 -25 18 -143 l3 -143 -30 4 c-37 4 -56 -7 -48 -28 5 -13 24
-16 107 -16 93 0 100 1 100 20 0 20 -2 22 -42 23 -13 1 -25 4 -28 8 -3 4 -5
87 -5 184 1 151 -2 178 -15 185 -12 6 -23 0 -40 -21z"/>
<path d="M1766 2064 c-6 -21 -35 -37 -70 -39 -5 0 -10 -8 -12 -17 -2 -20 21
-30 54 -23 22 4 22 4 22 -141 0 -144 0 -145 -22 -143 -42 4 -54 -1 -55 -21 -2
-19 4 -20 103 -20 97 0 104 1 104 20 0 18 -11 25 -34 21 -4 -1 -16 1 -25 4
-15 4 -16 26 -16 189 0 182 0 185 -22 189 -16 3 -23 -2 -27 -19z"/>
<path d="M2325 1961 c-55 -23 -85 -111 -79 -234 5 -103 30 -162 78 -182 99
-42 170 14 185 144 8 75 -2 168 -23 213 -27 56 -101 83 -161 59z m98 -59 c30
-33 42 -180 22 -260 -14 -57 -73 -82 -109 -47 -45 45 -47 261 -3 311 17 20 71
17 90 -4z"/>
<path d="M7084 1962 c-20 -2 -35 -11 -43 -25 -13 -27 -38 -70 -70 -120 l-24
-39 -48 82 c-58 100 -60 102 -93 98 -25 -3 -25 -3 44 -121 l70 -117 0 -90 0
-90 28 0 28 0 -1 88 c-1 98 -1 99 85 237 33 54 60 98 58 99 -2 1 -17 0 -34 -2z"/>
<path d="M4968 1804 c-7 -15 -23 -28 -40 -31 -61 -12 -59 -53 3 -48 l29 3 0
-142 0 -142 -36 -1 c-41 -1 -49 -6 -41 -28 5 -12 25 -15 107 -15 93 0 100 1
100 20 0 12 -7 20 -17 21 -10 1 -22 2 -28 4 -5 1 -15 3 -20 3 -7 1 -10 68 -10
186 0 171 -1 185 -18 190 -12 3 -22 -3 -29 -20z"/>
<path d="M1244 1600 c-53 -21 -81 -102 -79 -225 4 -143 55 -214 148 -202 82
11 119 80 118 221 -1 148 -44 217 -133 215 -18 0 -43 -4 -54 -9z m99 -58 c30
-33 42 -180 22 -260 -13 -53 -63 -79 -103 -53 -53 33 -53 289 0 322 22 15 64
10 81 -9z"/>
<path d="M6450 1582 c-8 -3 -23 -15 -33 -28 -9 -12 -29 -24 -44 -26 -16 -2
-27 -10 -29 -20 -2 -18 1 -20 46 -22 l25 -1 3 -142 3 -142 -29 1 c-35 1 -52
-8 -52 -28 0 -11 20 -14 105 -14 98 0 105 1 105 20 0 21 0 21 -45 24 l-30 1 0
187 c0 102 -2 188 -5 191 -3 2 -12 2 -20 -1z"/>
<path d="M5420 1560 l-35 -5 -1 -207 -2 -208 29 0 29 0 0 85 0 85 29 0 c25 0
40 -13 98 -85 63 -78 71 -84 106 -85 l38 0 -75 92 -76 91 30 18 c35 22 50 48
54 97 4 41 -18 88 -49 104 -25 14 -130 25 -175 18z m147 -72 c16 -15 20 -28
17 -56 -7 -52 -30 -71 -92 -76 l-52 -4 0 78 c0 54 4 80 13 83 26 8 93 -6 114
-25z"/>
<path d="M2968 1524 c-7 -16 -25 -28 -50 -34 -21 -6 -38 -14 -38 -18 1 -19 18
-29 48 -27 l32 1 0 -142 0 -143 -27 1 c-45 1 -49 -1 -50 -22 -2 -19 4 -20 103
-20 97 0 104 1 104 20 0 20 -4 22 -50 23 l-25 0 0 188 c0 173 -1 188 -18 193
-12 3 -22 -3 -29 -20z"/>
<path d="M3462 1521 c-11 -16 -34 -31 -50 -34 -17 -3 -29 -12 -29 -21 0 -16 8
-18 55 -19 22 -1 22 -2 22 -142 l0 -142 -27 1 c-32 2 -53 -10 -53 -30 0 -11
22 -14 105 -14 98 0 105 1 105 20 0 21 0 21 -45 24 l-30 1 0 183 c0 157 -2
185 -16 192 -12 7 -21 2 -37 -19z"/>
<path d="M4422 1330 l0 -210 124 0 124 0 0 25 c0 25 0 25 -95 25 l-95 0 0 185
0 185 -29 0 -28 0 -1 -210z"/>
<path d="M5944 1421 c-15 -17 -37 -31 -50 -31 -24 0 -41 -29 -24 -40 6 -4 24
-6 40 -5 l30 2 0 -142 0 -142 -27 -1 c-48 0 -52 -2 -50 -22 1 -19 8 -20 104
-20 96 0 103 1 103 20 0 20 -3 21 -50 24 l-25 1 0 182 c0 206 -6 225 -51 174z"/>
<path d="M3929 1387 c-45 -31 -67 -103 -64 -213 4 -108 29 -169 82 -190 74
-31 148 6 172 86 25 83 15 218 -21 288 -27 53 -112 68 -169 29z m114 -44 c42
-48 43 -258 0 -305 -16 -18 -59 -24 -79 -10 -50 33 -59 261 -13 311 24 26 70
27 92 4z"/>
<path d="M1683 1074 l2 -209 72 -3 c40 -2 91 2 113 8 52 14 115 71 131 118 32
97 0 211 -73 259 -34 23 -52 27 -143 31 l-103 5 1 -209z m197 137 c50 -23 80
-85 74 -153 -8 -99 -61 -147 -161 -148 l-53 0 0 163 0 164 53 -5 c28 -2 68
-12 87 -21z"/>
<path d="M2368 1245 c-10 -22 -40 -38 -73 -40 -5 0 -11 -8 -13 -17 -4 -18 1
-20 51 -20 l27 -1 0 -142 0 -142 -37 0 c-31 1 -38 -2 -38 -18 0 -18 8 -20 103
-23 97 -3 102 -2 102 18 0 20 -4 22 -50 22 l-25 1 0 184 c0 167 -1 186 -17
194 -14 8 -20 5 -30 -16z"/>
<path d="M6916 1255 c-9 -9 -16 -20 -16 -25 0 -5 -18 -14 -39 -20 -28 -7 -39
-16 -38 -28 1 -13 9 -17 39 -16 l39 1 -3 -141 c-3 -137 -4 -141 -25 -142 -34
-2 -53 -12 -53 -29 0 -12 17 -15 106 -15 104 0 105 0 102 23 -2 18 -9 22 -38
20 l-35 -2 0 185 c1 193 -5 222 -39 189z"/>
<path d="M4968 1104 c-11 -23 -41 -40 -64 -36 -13 3 -27 -25 -19 -37 2 -5 20
-7 40 -6 l35 3 0 -142 0 -141 -36 -2 c-42 -2 -49 -7 -41 -28 5 -12 26 -15 107
-15 99 0 101 1 98 22 -2 18 -9 22 -38 21 l-35 0 0 188 c0 173 -1 188 -18 193
-12 3 -22 -3 -29 -20z"/>
<path d="M4488 884 c-6 -13 -23 -27 -37 -30 -14 -3 -30 -7 -35 -8 -14 -3 -16
-34 -3 -39 7 -2 24 -3 40 -2 l27 2 0 -143 0 -143 -27 1 c-45 1 -49 -1 -50 -22
-2 -19 4 -20 103 -20 97 0 104 1 104 20 0 20 -4 22 -50 22 l-25 1 0 190 c0
176 -1 190 -18 193 -11 1 -22 -7 -29 -22z"/>
<path d="M5486 864 c-6 -21 -35 -37 -70 -39 -14 0 -16 -33 -3 -38 7 -2 24 -3
40 -2 l27 2 0 -144 c0 -143 0 -144 -22 -142 -42 4 -54 -1 -55 -21 -2 -19 4
-20 103 -20 97 0 104 1 104 20 0 18 -11 25 -34 21 -4 -1 -16 1 -25 4 -15 4
-16 25 -16 189 0 182 0 185 -22 189 -16 3 -23 -2 -27 -19z"/>
<path d="M6370 868 c-46 -32 -62 -83 -63 -198 -1 -83 2 -103 23 -145 20 -39
33 -53 62 -64 80 -29 148 12 169 103 16 73 8 212 -15 259 -33 67 -113 87 -176
45z m113 -45 c28 -32 41 -142 26 -235 -10 -60 -32 -88 -70 -88 -57 0 -81 59
-75 190 4 91 11 118 35 137 23 18 66 16 84 -4z"/>
<path d="M2909 827 c-92 -62 -86 -352 10 -401 51 -27 110 -17 149 24 57 62 59
279 2 356 -35 49 -106 58 -161 21z m115 -46 c28 -31 40 -183 21 -261 -13 -51
-64 -76 -103 -51 -23 14 -40 83 -40 159 0 85 13 142 36 160 24 18 66 15 86 -7z"/>
<path d="M5890 728 c-46 -32 -62 -83 -63 -198 -1 -155 42 -221 141 -216 52 3
98 42 113 99 22 83 9 244 -24 288 -40 52 -112 64 -167 27z m113 -46 c23 -25
34 -87 31 -167 -5 -116 -23 -155 -73 -155 -55 0 -74 38 -78 151 -2 94 10 157
35 177 23 17 66 15 85 -6z"/>
<path d="M3940 697 c-14 -7 -36 -32 -49 -57 -22 -38 -25 -57 -25 -144 0 -129
23 -188 81 -212 73 -31 152 9 173 88 12 43 15 180 4 223 -22 94 -107 141 -184
102z m112 -68 c15 -20 20 -45 22 -110 4 -137 -19 -199 -73 -199 -54 0 -73 37
-77 150 -4 94 9 158 34 178 26 20 72 10 94 -19z"/>
<path d="M4909 407 c-45 -30 -67 -102 -64 -212 3 -91 29 -166 63 -184 28 -15
123 -13 142 2 45 36 61 87 61 200 0 82 -17 155 -43 181 -42 42 -108 47 -159
13z m115 -46 c21 -23 34 -101 30 -178 -6 -104 -25 -143 -73 -143 -57 0 -75 38
-77 159 -2 99 8 148 34 169 23 18 66 15 86 -7z"/>
<path d="M4439 195 c-45 -24 -64 -67 -73 -158 -4 -35 -2 -37 25 -37 21 0 29 5
30 18 3 68 19 121 39 132 29 15 65 12 83 -8 17 -19 36 -94 31 -125 -2 -13 5
-17 27 -17 28 0 29 2 28 43 -2 127 -97 203 -190 152z"/>
<path d="M5429 167 c-35 -23 -54 -64 -61 -128 -3 -31 0 -34 25 -37 15 -2 27 0
28 5 8 97 29 133 80 133 41 0 69 -43 71 -110 1 -26 5 -30 31 -30 29 0 30 1 25
43 -14 125 -110 184 -199 124z"/>
<path d="M6384 180 c-30 -12 -61 -59 -69 -105 -4 -22 -9 -48 -11 -58 -2 -13 4
-17 27 -17 16 0 29 3 30 8 12 107 27 132 82 132 40 0 67 -44 69 -110 1 -26 5
-30 31 -30 29 0 30 1 25 43 -13 114 -93 174 -184 137z"/>
</g>
</svg>
